<?xml version="1.0" encoding="UTF-8" standalone="no"?>
<!-- Created with Inkscape (http://www.inkscape.org/) -->

<svg
   xmlns:dc="http://purl.org/dc/elements/1.1/"
   xmlns:cc="http://creativecommons.org/ns#"
   xmlns:rdf="http://www.w3.org/1999/02/22-rdf-syntax-ns#"
   xmlns:svg="http://www.w3.org/2000/svg"
   xmlns="http://www.w3.org/2000/svg"
   xmlns:sodipodi="http://sodipodi.sourceforge.net/DTD/sodipodi-0.dtd"
   xmlns:inkscape="http://www.inkscape.org/namespaces/inkscape"
   version="1.1"
   width="945"
   height="945"
   id="svg3071"
   inkscape:version="0.48.5 r10040"
   sodipodi:docname="guitte_de_france_plain.svg">
  <sodipodi:namedview
     pagecolor="#ffffff"
     bordercolor="#666666"
     borderopacity="1"
     objecttolerance="10"
     gridtolerance="10"
     guidetolerance="10"
     inkscape:pageopacity="0"
     inkscape:pageshadow="2"
     inkscape:window-width="1920"
     inkscape:window-height="1013"
     id="namedview17"
     showgrid="false"
     inkscape:zoom="2.8254341"
     inkscape:cx="137.4814"
     inkscape:cy="320.70759"
     inkscape:window-x="0"
     inkscape:window-y="27"
     inkscape:window-maximized="1"
     inkscape:current-layer="text3081" />
  <metadata
     id="metadata3077">
    <rdf:RDF>
      <cc:Work
         rdf:about="">
        <dc:format>image/svg+xml</dc:format>
        <dc:type
           rdf:resource="http://purl.org/dc/dcmitype/StillImage" />
        <dc:title />
      </cc:Work>
    </rdf:RDF>
  </metadata>
  <defs
     id="defs3075" />
  <path
     d="m 1024.9822,460.52286 a 450.69556,439.98434 0 1 1 -901.39107,0 450.69556,439.98434 0 1 1 901.39107,0 z"
     transform="matrix(0.97678456,0,0,1.0001778,-88.287657,12.24002)"
     id="path3953"
     style="fill:#ffffff;fill-opacity:1;stroke:none" />
  <g
     id="g3943">
    <path
       d="M 415,910.89357 C 224.68372,885.73206 71.982241,740.91631 37.617859,553 32.236076,523.57055 31.821862,517.00022 32.25488,467.93144 32.699959,417.49589 33.253215,411.92491 41.470819,375.13215 67.348195,259.27111 141.87485,156.67999 245.26572,94.594307 c 19.31034,-11.595764 51.87625,-27.785675 53.20929,-26.45263 0.24841,0.248405 -0.18026,2.551315 -0.95259,5.117577 C 295.60539,79.629046 294,94.887496 294,106.73808 c 0,13.87171 0.0712,13.80217 -14.89536,14.55468 -9.67614,0.48651 -13.78614,1.20192 -21.22713,3.69488 -10.41443,3.48915 -21.03011,10.03616 -26.34923,16.25035 -4.58997,5.36235 -4.74774,7.92783 -0.27828,4.52498 6.40272,-4.87474 12.00588,-7.06375 19.25,-7.52049 6.78199,-0.4276 12.17649,0.4552 38,6.21861 11.31446,2.52522 24.84172,2.98864 33.47637,1.14684 22.73778,-4.85004 35.1721,-19.58498 40.96733,-48.547173 1.14887,-5.741583 2.76443,-11.185756 3.59015,-12.098161 1.23863,-1.368669 4.42885,-1.762614 18.23373,-2.25159 24.78876,-0.878031 39.98958,-5.341152 58.10579,-17.060468 C 455.58183,57.429477 461.18957,50.644777 469.0334,34 c 0.593,-1.258369 3.58709,-1.479251 18.58673,-1.371193 19.50283,0.140499 39.3591,2.051318 61.57922,5.925922 C 727.96029,69.72593 870.11016,208.26821 906.03497,386.3343 912.06722,416.23398 913,427.84052 913,473 c 0,35.23968 -0.28143,43.11632 -2.02632,56.71175 C 904.528,579.93365 888.3242,631.82847 865.3009,675.98489 798.1671,804.74088 672.51178,892.62036 529.21175,911.03536 507.21007,913.86272 436.79682,913.77531 415,910.89357 z m 44.45102,-31.25387 c 1.3617,-6.71724 1.51289,-9.54397 0.54256,-10.14367 -0.58728,-0.36296 -10.69717,-1.64413 -22.46641,-2.84704 -11.76925,-1.20292 -21.70145,-2.48993 -22.07156,-2.86004 -0.72312,-0.72313 1.06051,-21.6384 1.91846,-22.49636 0.28333,-0.28333 9.1291,0.0359 19.65726,0.70941 10.71625,0.68554 19.48737,0.84457 19.92649,0.36128 1.23811,-1.36265 2.05305,-11.23853 0.98201,-11.90047 -0.52764,-0.3261 -9.16745,-1.31028 -19.19959,-2.18707 -10.03213,-0.8768 -18.81404,-2.03701 -19.51535,-2.57824 -1.58207,-1.22097 -0.60026,-18.60851 1.14509,-20.27915 0.81091,-0.7762 7.28822,-0.62831 22.93717,0.5237 11.99393,0.88294 22.18575,1.36968 22.64849,1.08165 1.18508,-0.73765 2.42608,-11.67376 1.39448,-12.28854 -1.44748,-0.86262 -63.29631,-5.1223 -64.01008,-4.40853 -1.23209,1.23208 -7.20266,86.30876 -6.09004,86.77904 1.16634,0.49298 59.54693,5.39903 60.50863,5.08488 0.69225,-0.22613 1.45382,-1.37402 1.69239,-2.55085 z m 99.87275,-6.77586 c 3.11154,-0.62488 6.04707,-1.63738 6.52341,-2.25 0.51341,-0.66028 -0.66686,-8.03626 -2.89849,-18.11384 -2.83652,-12.80914 -3.47911,-17.26936 -2.60663,-18.09264 0.63687,-0.60095 8.35794,-2.58364 17.15794,-4.40598 22.17176,-4.59141 20.89736,-3.93881 20.0641,-10.27445 -0.37809,-2.87481 -1.10904,-5.65378 -1.62432,-6.17548 -0.58982,-0.59717 -7.74853,0.29216 -19.32447,2.40068 -10.11317,1.84208 -19.01672,3.10781 -19.78566,2.81274 -1.82591,-0.70067 -5.36577,-18.62875 -3.95646,-20.03806 0.54461,-0.54461 10.5674,-2.97295 22.27286,-5.39632 11.70546,-2.42336 21.57164,-4.8737 21.92483,-5.44518 0.79327,-1.28353 -0.75326,-9.96769 -1.99651,-11.21094 -1.01317,-1.01317 -60.98416,10.83862 -62.4989,12.35137 -0.77075,0.76974 11.89666,66.96878 15.54254,81.22426 1.0927,4.27245 1.95057,4.47255 11.20576,2.61384 z M 353.46504,856.46709 c 17.32656,-4.51299 30.34079,-18.49553 34.1605,-36.70217 3.43728,-16.38376 -3.11346,-33.09424 -16.28735,-41.5479 -7.23613,-4.64341 -47.40365,-22.55605 -48.36128,-21.56663 -2.14028,2.21132 -40.05159,77.71262 -39.60545,78.87522 0.55233,1.43936 1.68974,1.98174 27.2732,13.00532 22.4158,9.65867 30.47364,11.15208 42.82038,7.93616 z m -22.69028,-14.48825 c -2.04888,-0.51551 -8.72555,-3.44505 -14.83703,-6.51007 -8.75609,-4.39135 -10.97902,-5.91879 -10.48548,-7.20492 1.32054,-3.44129 25.75456,-47.83535 27.06819,-49.1801 1.19043,-1.21862 3.16936,-0.73497 14.18152,3.46592 10.82012,4.12763 13.52304,5.60507 17.48914,9.55972 10.52002,10.48968 9.81989,27.01765 -1.68388,39.75094 -7.2597,8.03562 -21.70448,12.64162 -31.73246,10.11851 z m 329.82727,-9.38412 c 0.28174,-0.73421 -7.16346,-15.13062 -16.54489,-31.99201 C 634.67571,783.74131 627,769.27991 627,768.46626 c 0,-1.36888 9.555,-8.1163 16.79595,-11.86074 9.27902,-4.79837 19.20405,0.94371 19.20405,11.11042 0,5.47555 -2.8483,10.09775 -9.59704,15.57402 -3.24663,2.63448 -5.90296,5.33448 -5.90296,6 0,1.01809 40.91982,29.55147 42.54992,29.67004 C 691.1131,819.0373 703,809.96645 703,809.0778 c 0,-0.4946 -7.1909,-6.00194 -15.97978,-12.23854 -8.78888,-6.23659 -15.98888,-11.74678 -16,-12.24487 -0.0111,-0.49808 1.03808,-2.29808 2.33157,-4 4.75016,-6.25008 6.02012,-9.83323 6.0587,-17.09439 0.0302,-5.6921 -0.46256,-7.95659 -2.63749,-12.11974 -6.31604,-12.08987 -19.73404,-16.99851 -30.92283,-11.31235 -8.41087,4.27442 -40.82619,23.08427 -41.41035,24.02946 -0.58292,0.94318 37.44774,71.80002 40.31218,75.10765 1.37754,1.59067 1.94137,1.47095 8.40716,-1.78517 3.81183,-1.91961 7.16112,-4.09092 7.44287,-4.82513 z M 730.09908,786.75 c 1.93743,-2.3375 3.80918,-4.73143 4.15943,-5.31983 0.35026,-0.58841 -1.58318,-8.01341 -4.29653,-16.5 -2.71335,-8.4866 -4.9398,-16.04259 -4.94767,-16.79111 C 724.99876,746.65988 747.5877,720 748.85656,720 c 0.42616,0 7.89185,2.95047 16.59043,6.55661 8.69857,3.60613 16.40598,6.33005 17.12758,6.05315 0.72159,-0.2769 3.35799,-3.55333 5.85866,-7.28095 3.5964,-5.36098 4.28751,-7.02901 3.30672,-7.98093 C 790.3627,716.01119 711.70422,680 710.16175,680 708.847,680 694,698.99579 694,700.67794 c 0,0.97217 25.82585,78.99402 29.48356,89.07206 0.83393,2.29774 3.06192,1.28739 6.61552,-3 z m -16.06611,-69.75788 c -2.39279,-7.70434 -4.05094,-14.30749 -3.68476,-14.67366 0.75305,-0.75305 22.38698,8.3151 24.56817,10.29807 1.19722,1.08841 0.21555,2.61037 -6.34399,9.83557 -4.2682,4.70134 -8.30678,8.5479 -8.97462,8.5479 -0.6875,0 -3.10157,-6.07676 -5.5648,-14.00788 z m -488.46223,67.11507 c 5.3729,-2.44032 10.12821,-8.34367 12.07224,-14.98675 1.60497,-5.48447 1.60518,-5.4494 -0.21774,-35.62044 -0.67654,-11.19735 0.21441,-14.92306 3.9788,-16.63823 3.92852,-1.78995 10.41821,2.05702 18.93463,11.22412 4.0438,4.35276 7.81168,7.91411 8.37307,7.91411 0.56139,0 2.64557,-2.08558 4.6315,-4.63461 3.59751,-4.61756 3.60444,-4.64564 1.88378,-7.62997 -2.9211,-5.06639 -18.72426,-20.31363 -23.40058,-22.57739 -2.43242,-1.17752 -6.5043,-2.42627 -9.04864,-2.77501 -18.31705,-2.51063 -26.15069,12.81378 -22.86101,44.72141 C 221.61846,759.6094 219.39013,768 213.30517,768 c -5.74869,0 -13.42056,-6.28252 -22.28593,-18.25 -2.34274,-3.1625 -4.76797,-5.73609 -5.38939,-5.71908 -1.36115,0.0372 -7.62985,8.15913 -7.62985,9.88543 0,2.07361 17.21148,22.27117 21.74392,25.51634 9.08241,6.5029 18.177,8.14897 25.82682,4.6745 z M 163,718.98499 c 0,-0.93344 -4.66737,-9.97442 -10.37193,-20.09107 C 146.9235,688.77726 142.42874,680.05 142.63969,679.5 c 0.21096,-0.55 4.54083,-3.3606 9.62194,-6.24578 10.98437,-6.2372 8.66886,-7.6725 21.43905,13.28929 5.00552,8.21639 9.44604,14.44771 10.29932,14.45291 2.47633,0.0151 10,-4.39072 10,-5.85593 0,-0.74962 -4.27853,-8.77516 -9.50784,-17.83452 -5.22932,-9.05936 -9.27912,-16.84166 -8.99956,-17.29399 1.06385,-1.72135 16.59247,-10.19331 17.8202,-9.72219 0.70849,0.27188 5.9425,8.30539 11.63114,17.85226 5.68863,9.54687 11.00594,18.12642 11.81623,19.06565 1.38085,1.6006 1.77509,1.55476 6.28577,-0.73098 2.64689,-1.34128 5.09532,-2.89627 5.44096,-3.45553 0.55855,-0.90375 -28.98769,-51.59487 -31.94451,-54.80574 -0.94563,-1.02688 -8.64094,3.18277 -38.36265,20.98594 C 137.73088,661.45015 121,671.82688 121,672.26079 c 0,1.38426 29.25301,51.18842 30.8161,52.46535 1.21709,0.99429 2.41642,0.72786 6.3424,-1.40893 2.85176,-1.55212 4.8415,-3.33256 4.8415,-4.33222 z m 652.45762,-31.60927 c 2.00264,-3.64335 3.50644,-7.27989 3.34177,-8.08121 -0.16466,-0.80131 -13.75877,-8.50788 -30.20911,-17.12572 -16.45035,-8.61783 -29.95035,-16.11879 -30,-16.66879 -0.057,-0.63141 14.05704,-1.45616 38.29231,-2.2376 27.84955,-0.89797 38.80681,-1.58403 39.92844,-2.5 0.85021,-0.69432 4.35662,-7.1124 7.79201,-14.2624 4.80515,-10.00086 5.97518,-13.27743 5.07156,-14.20256 -1.99917,-2.04675 -75.05265,-40.09061 -76.14496,-39.65379 -1.26145,0.50446 -8.53203,13.78758 -8.5235,15.57217 0.003,0.7063 13.04774,8.03418 28.98748,16.28418 15.93974,8.25 28.98777,15.45 28.99561,16 0.009,0.63908 -13.25017,1.19601 -36.73749,1.54308 -20.21346,0.29869 -36.86142,0.63619 -36.99548,0.75 -1.42089,1.20625 -14.9212,30.12015 -14.42423,30.89267 0.8289,1.28849 74.22835,40.31132 75.8262,40.31302 0.63703,6.8e-4 2.79675,-2.97969 4.79939,-6.62305 z M 183.44684,616.58666 C 185.76499,615.61807 187,614.43603 187,613.1859 c 0,-2.25835 -19.86937,-60.25594 -21.10795,-61.61295 -0.94746,-1.03805 -10.49426,0.85202 -12.43371,2.46162 -0.90371,0.75002 -0.33407,3.76142 2.35726,12.46162 1.95191,6.30993 3.24567,11.77588 2.875,12.14654 -0.37066,0.37066 -16.09018,5.03574 -34.93227,10.36683 C 97.563228,596.42108 89.423193,599.0942 89.173668,600.36685 88.750627,602.52448 92.894896,615 94.034684,615 c 0.479393,0 16.431146,-4.54299 35.448336,-10.09553 19.01719,-5.55254 35.12577,-9.88354 35.79684,-9.62444 0.67108,0.2591 2.95348,5.74917 5.07201,12.20016 3.84633,11.71221 3.85595,11.72825 6.69684,11.16007 1.56473,-0.31295 4.44389,-1.23707 6.39813,-2.0536 z M 368,539.37828 368.5,478.5 l 13.75,-0.27822 13.75,-0.27822 0.14348,8.77822 c 0.0789,4.82802 0.41641,26.32822 0.75,47.77822 l 0.60652,39 32.66777,0 c 17.96727,0 32.93877,-0.2715 33.26999,-0.60332 1.17953,-1.18169 1.8726,-16.58683 0.77671,-17.26413 -0.58288,-0.36024 -3.44136,-1.10664 -6.35218,-1.65867 -16.88635,-3.20243 -27.92699,-16.28067 -27.98029,-33.14417 -0.0381,-12.05624 4.15711,-21.92515 14.15676,-33.30267 C 450.1086,480.62083 452,476.69023 452,470.98246 452,462.8804 447.4914,458 440.00659,458 c -3.58517,0 -6.17639,0.95299 -12.23576,4.5 -7.61728,4.45898 -9.77083,5.26901 -9.77083,3.67515 0,-0.45366 1.10454,-4.07234 2.45454,-8.0415 l 2.45454,-7.21665 -5.45454,-3.48923 C 412.64752,444.35276 412,443.5451 412,440.62426 c 0,-1.89487 0.74948,-3.98311 1.75,-4.87597 C 417.32339,432.55944 441.45916,418 443.17206,418 c 1.95612,0 4.76692,4.63584 4.98193,8.21667 0.0754,1.25583 -0.19797,3.94148 -0.6075,5.96811 -0.74456,3.68459 -0.74437,3.68485 3.60445,4.83942 9.99902,2.65464 12.1107,7.41285 12.41556,27.9758 0.12639,8.525 0.67875,16.64349 1.22747,18.0411 1.18141,3.00906 3.7536,5.35655 5.01505,4.57693 0.49315,-0.30478 1.16922,-4.95602 1.50238,-10.33609 1.0115,-16.33407 5.33649,-28.33727 13.47013,-37.38385 11.75414,-13.07343 27.86736,-13.59677 39.22608,-1.27401 4.6295,5.02241 7.15843,10.07654 9.45628,18.89861 1.81021,6.94983 1.95819,10.47731 0.43956,10.47731 -0.6031,0 -3.1906,-1.84618 -5.75,-4.10261 -7.16646,-6.31816 -14.94796,-9.65693 -16.53229,-7.09343 -0.27329,0.44218 2.36193,3.36097 5.85603,6.4862 8.63926,7.7272 12.52281,15.4214 12.52281,24.81055 0,3.72969 -0.37253,7.01149 -0.82784,7.29289 -0.45532,0.2814 -2.42664,-1.40103 -4.38072,-3.73874 -3.59725,-4.30346 -12.11485,-9.66479 -13.36632,-8.41331 -0.37484,0.37484 0.26971,2.7052 1.43233,5.17858 1.16263,2.47338 2.55932,6.42819 3.10376,8.78846 1.08269,4.69368 1.37824,12.79141 0.46686,12.79141 -0.31456,0 -2.59435,-1.18521 -5.06619,-2.63381 -2.55149,-1.49527 -4.85351,-2.25176 -5.32532,-1.75 -0.45708,0.4861 -1.54271,5.45381 -2.41251,11.03936 -2.77016,17.78909 -7.47421,27.00297 -17.32,33.92489 -6.29538,4.42587 -7.05212,6.2753 -7.22993,17.66956 L 479,573 l 33.92857,0 c 29.51082,0 34.13318,-0.20461 35.5,-1.57143 1.35393,-1.35392 1.59058,-5.81767 1.70977,-32.25 0.0761,-16.87321 0.41359,-38.10357 0.75,-47.17857 L 551.5,475.5 560,475.18592 c 4.675,-0.17275 10.8625,-0.0279 13.75,0.32195 l 5.25,0.63604 0,60.3056 c 0,62.61527 -0.0509,61.81838 4.00343,62.7183 C 584.31538,599.45902 584.56168,591.91328 585,538 l 0.5,-61.5 14.15332,-0.27687 c 12.22902,-0.23922 14.24185,-0.50756 14.80443,-1.97362 C 615.74042,470.90691 612.32851,470 598.47061,470 l -13.14714,0 -0.66173,-33.16324 c -0.36396,-18.23979 -0.66863,-41.52729 -0.67705,-51.75 -0.008,-10.22272 -0.41301,-19.21483 -0.89908,-19.98248 -0.50178,-0.79245 -1.59982,-1.12094 -2.54045,-0.75998 -1.51569,0.58162 -1.64188,5.01161 -1.48258,52.04972 0.0958,28.27769 -0.1307,51.90718 -0.50325,52.50998 -0.9085,1.46999 -26.19012,1.50242 -27.09718,0.0348 -0.36074,-0.58368 -1.07656,-18.02118 -1.59071,-38.75 -0.51415,-20.72881 -1.15623,-38.31587 -1.42685,-39.08236 -0.41777,-1.18326 -11.77128,-1.28641 -75.21831,-0.68343 -67.262,0.63924 -74.85114,0.87246 -75.97628,2.33474 -0.95125,1.23629 -1.25,11.01943 -1.25,40.93343 L 396,473 l -13.83817,0 -13.83817,0 -0.66022,-33.75 c -0.36313,-18.5625 -0.66095,-42.26457 -0.66184,-52.67126 -10e-4,-16.20161 -0.23948,-19.18411 -1.65659,-20.75 C 360.99307,361.0199 361,360.93595 361,418.5 l 0,54.5 -12.87756,0 c -9.26155,0 -13.17667,0.36042 -13.94279,1.28354 -2.3932,2.88363 0.3189,3.65378 13.86053,3.93597 L 361.5,478.5 l 0.24904,61 c 0.13698,33.55 0.48001,61.61372 0.76229,62.36381 0.42663,1.13366 0.89089,1.11311 2.75096,-0.12172 L 367.5,600.25655 368,539.37828 z m 63.63636,-61.01464 c -3.94139,-3.9414 -3.73947,-10.25765 0.44037,-13.77475 4.30472,-3.62219 9.16886,-3.49715 13.00019,0.33419 C 451.38696,471.23311 447.39142,481 438.5,481 c -3.23406,0 -4.84669,-0.61942 -6.86364,-2.63636 z M 840.5,567.64065 c 7.49155,-2.00117 13.23732,-5.28273 18.54762,-10.59303 5.53992,-5.53992 8.42844,-10.75513 10.41215,-18.79907 1.90015,-7.70513 4.13223,-35.06684 2.9531,-36.2004 -0.50208,-0.48268 -3.44455,-1.18585 -6.53883,-1.5626 l -5.62596,-0.685 -0.47351,12.34972 c -0.36588,9.54251 -0.97886,13.65724 -2.69667,18.10182 -3.27893,8.48374 -8.87964,15.01456 -15.76525,18.38337 -20.36298,9.96268 -47.26891,-6.2708 -47.30288,-28.53981 -0.005,-3.5224 1.14761,-12.46752 2.56218,-19.87805 1.57264,-8.23861 2.21312,-13.83253 1.64843,-14.39722 -0.50794,-0.50794 -3.80281,-0.78781 -7.32195,-0.62195 L 784.5,485.5 l -2.82035,19 c -3.26137,21.97098 -2.86949,30.24505 1.87601,39.60983 5.5128,10.87899 16.98929,19.92983 29.55667,23.30962 6.84636,1.84122 20.89812,1.95471 27.38767,0.2212 z M 123.26342,539.49817 C 144.03329,537.57418 161.26331,536 161.55235,536 c 0.28903,0 0.3955,-3.9375 0.23658,-8.75 L 161.5,518.5 l -3.5048,-0.29575 c -1.92764,-0.16266 -21.07678,1.52484 -42.55366,3.75 C 93.964672,524.17941 75.787634,526 75.048126,526 c -1.066157,0 -1.216004,1.66708 -0.723694,8.05124 0.341477,4.42818 0.906705,8.51373 1.256062,9.079 0.375327,0.60729 2.534375,0.79014 5.277351,0.44694 2.553185,-0.31946 21.635695,-2.15501 42.405575,-4.07901 z m -0.93135,-45.92114 c 1.02276,-2.66528 0.98733,-29.65763 -0.0403,-30.68524 -0.55016,-0.55016 -3.65323,-0.86338 -6.89572,-0.69604 l -5.89542,0.30425 -0.74262,6 c -1.1513,9.30188 -0.53204,8.84848 -11.025613,8.07246 -5.077829,-0.37552 -9.992502,-0.90457 -10.921495,-1.17566 -2.452067,-0.71556 -4.120421,-10.13268 -3.604909,-20.34813 0.705578,-13.98182 7.122061,-24.08566 18.671587,-29.40157 6.55404,-3.01664 19.71553,-3.00485 26.29807,0.0236 6.96836,3.20591 13.13314,9.42431 16.4389,16.58186 L 147.5,448.5 l 0,21.5 0,21.5 4.82769,0.30796 c 2.65524,0.16938 5.40059,-0.16749 6.10078,-0.7486 1.55608,-1.29143 4.19864,-41.44324 3.20794,-48.74243 -2.39994,-17.68203 -13.0368,-31.94433 -28.67877,-38.45356 -4.52017,-1.88102 -7.35604,-2.27906 -16.5095,-2.31725 -10.77654,-0.045 -11.23892,0.0463 -18.5606,3.6649 -19.125496,9.45233 -28.968379,28.8796 -28.951877,57.14341 0.007,11.98916 2.090064,28.0713 3.866013,29.84725 0.970694,0.97069 21.972124,2.4036 38.841334,2.6501 7.95019,0.11618 10.26106,-0.15941 10.68906,-1.27475 z M 868.18778,456.5 c 0.37828,-4.95 0.82828,-18.88913 1,-30.97585 L 869.5,403.5483 l -5.49378,-0.80101 c -4.42284,-0.64486 -5.71052,-0.50459 -6.60564,0.71956 -0.62604,0.85617 -1.40552,8.40516 -1.78394,17.27686 -0.36964,8.66596 -0.94272,18.34379 -1.27352,21.50629 l -0.60145,5.75 -9.12084,-0.0136 C 829.6447,447.96392 831,450.05128 831,427.00837 l 0,-19.75837 -3.125,-0.625 c -4.78267,-0.95653 -8.68156,-0.747 -9.45735,0.50825 -0.38522,0.62329 -1.08719,9.28579 -1.55995,19.25 -0.47275,9.96421 -1.07001,18.67925 -1.32724,19.36675 -0.5163,1.37991 -9.06781,1.68635 -16.94178,0.6071 l -4.69047,-0.6429 0.3009,-23.08323 0.30089,-23.08322 -5.43203,-0.79185 c -3.20898,-0.46778 -5.81701,-0.40686 -6.37275,0.14888 -1.19503,1.19503 -3.152,63.04219 -2.02982,64.14975 0.96044,0.94792 50.80729,2.70516 72.3346,2.54999 l 14.5,-0.10452 0.68778,-9 z M 289.48213,230.72187 c 98.44018,-60.03274 179.68995,-109.15044 180.55505,-109.15044 0.8651,0 83.89814,48.44364 184.51787,107.65253 100.61972,59.2089 183.66316,107.92688 184.54098,108.26219 1.36931,0.52305 1.6882,-0.78219 2.24483,-9.18825 0.35683,-5.38884 0.65112,-13.05402 0.65397,-17.03371 l 0.005,-7.23581 -3.75,-2.45827 C 825.37445,293.12971 470.37321,84 468.92103,84 c -0.98512,0 -49.60681,29.47856 -108.04818,65.5079 -58.44138,36.02935 -106.5931,65.16685 -107.00384,64.75 -0.41074,-0.41684 -1.37923,-5.37534 -2.15221,-11.01887 -0.77298,-5.64354 -1.68573,-10.54129 -2.02834,-10.8839 -1.08024,-1.08024 -52.61574,1.84975 -53.58288,3.04639 -0.51263,0.63429 -0.54777,12.50528 -0.0831,28.09178 0.44255,14.84631 0.47682,27.57907 0.0762,28.295 -0.40066,0.71594 -20.94925,14.05128 -45.66354,29.63408 L 105.5,309.75475 l 0.17044,10.37263 c 0.0937,5.70494 0.46787,12.76921 0.83142,15.69837 0.54921,4.42521 0.94312,5.21759 2.32956,4.68615 0.91772,-0.35177 82.21054,-49.75729 180.65071,-109.79003 z"
       id="path3949"
       style="fill:#efdf01" />
    <path
       d="M 415,910.89357 C 224.68372,885.73206 71.982241,740.91631 37.617859,553 32.236076,523.57055 31.821862,517.00022 32.25488,467.93144 32.699959,417.49589 33.253215,411.92491 41.470819,375.13215 67.348195,259.27111 141.87485,156.67999 245.26572,94.594307 c 19.31034,-11.595764 51.87625,-27.785675 53.20929,-26.45263 0.24841,0.248405 -0.18026,2.551315 -0.95259,5.117577 C 295.60539,79.629046 294,94.887496 294,106.73808 c 0,13.87171 0.0712,13.80217 -14.89536,14.55468 -9.67614,0.48651 -13.78614,1.20192 -21.22713,3.69488 -10.41443,3.48915 -21.03011,10.03616 -26.34923,16.25035 -4.58997,5.36235 -4.74774,7.92783 -0.27828,4.52498 6.40272,-4.87474 12.00588,-7.06375 19.25,-7.52049 6.78199,-0.4276 12.17649,0.4552 38,6.21861 11.31446,2.52522 24.84172,2.98864 33.47637,1.14684 22.73778,-4.85004 35.1721,-19.58498 40.96733,-48.547173 1.14887,-5.741583 2.76443,-11.185756 3.59015,-12.098161 1.23863,-1.368669 4.42885,-1.762614 18.23373,-2.25159 24.78876,-0.878031 39.98958,-5.341152 58.10579,-17.060468 C 455.58183,57.429477 461.18957,50.644777 469.0334,34 c 0.593,-1.258369 3.58709,-1.479251 18.58673,-1.371193 19.50283,0.140499 39.3591,2.051318 61.57922,5.925922 C 727.96029,69.72593 870.11016,208.26821 906.03497,386.3343 912.06722,416.23398 913,427.84052 913,473 c 0,35.23968 -0.28143,43.11632 -2.02632,56.71175 C 904.528,579.93365 888.3242,631.82847 865.3009,675.98489 798.1671,804.74088 672.51178,892.62036 529.21175,911.03536 507.21007,913.86272 436.79682,913.77531 415,910.89357 z m 44.45102,-31.25387 c 1.3617,-6.71724 1.51289,-9.54397 0.54256,-10.14367 -0.58728,-0.36296 -10.69717,-1.64413 -22.46641,-2.84704 -11.76925,-1.20292 -21.70145,-2.48993 -22.07156,-2.86004 -0.72312,-0.72313 1.06051,-21.6384 1.91846,-22.49636 0.28333,-0.28333 9.1291,0.0359 19.65726,0.70941 10.71625,0.68554 19.48737,0.84457 19.92649,0.36128 1.23811,-1.36265 2.05305,-11.23853 0.98201,-11.90047 -0.52764,-0.3261 -9.16745,-1.31028 -19.19959,-2.18707 -10.03213,-0.8768 -18.81404,-2.03701 -19.51535,-2.57824 -1.58207,-1.22097 -0.60026,-18.60851 1.14509,-20.27915 0.81091,-0.7762 7.28822,-0.62831 22.93717,0.5237 11.99393,0.88294 22.18575,1.36968 22.64849,1.08165 1.18508,-0.73765 2.42608,-11.67376 1.39448,-12.28854 -1.44748,-0.86262 -63.29631,-5.1223 -64.01008,-4.40853 -1.23209,1.23208 -7.20266,86.30876 -6.09004,86.77904 1.16634,0.49298 59.54693,5.39903 60.50863,5.08488 0.69225,-0.22613 1.45382,-1.37402 1.69239,-2.55085 z m 99.87275,-6.77586 c 3.11154,-0.62488 6.04707,-1.63738 6.52341,-2.25 0.51341,-0.66028 -0.66686,-8.03626 -2.89849,-18.11384 -2.83652,-12.80914 -3.47911,-17.26936 -2.60663,-18.09264 0.63687,-0.60095 8.35794,-2.58364 17.15794,-4.40598 22.17176,-4.59141 20.89736,-3.93881 20.0641,-10.27445 -0.37809,-2.87481 -1.10904,-5.65378 -1.62432,-6.17548 -0.58982,-0.59717 -7.74853,0.29216 -19.32447,2.40068 -10.11317,1.84208 -19.01672,3.10781 -19.78566,2.81274 -1.82591,-0.70067 -5.36577,-18.62875 -3.95646,-20.03806 0.54461,-0.54461 10.5674,-2.97295 22.27286,-5.39632 11.70546,-2.42336 21.57164,-4.8737 21.92483,-5.44518 0.79327,-1.28353 -0.75326,-9.96769 -1.99651,-11.21094 -1.01317,-1.01317 -60.98416,10.83862 -62.4989,12.35137 -0.77075,0.76974 11.89666,66.96878 15.54254,81.22426 1.0927,4.27245 1.95057,4.47255 11.20576,2.61384 z M 353.46504,856.46709 c 17.32656,-4.51299 30.34079,-18.49553 34.1605,-36.70217 3.43728,-16.38376 -3.11346,-33.09424 -16.28735,-41.5479 -7.23613,-4.64341 -47.40365,-22.55605 -48.36128,-21.56663 -2.14028,2.21132 -40.05159,77.71262 -39.60545,78.87522 0.55233,1.43936 1.68974,1.98174 27.2732,13.00532 22.4158,9.65867 30.47364,11.15208 42.82038,7.93616 z m -22.69028,-14.48825 c -2.04888,-0.51551 -8.72555,-3.44505 -14.83703,-6.51007 -8.75609,-4.39135 -10.97902,-5.91879 -10.48548,-7.20492 1.32054,-3.44129 25.75456,-47.83535 27.06819,-49.1801 1.19043,-1.21862 3.16936,-0.73497 14.18152,3.46592 10.82012,4.12763 13.52304,5.60507 17.48914,9.55972 10.52002,10.48968 9.81989,27.01765 -1.68388,39.75094 -7.2597,8.03562 -21.70448,12.64162 -31.73246,10.11851 z m 329.82727,-9.38412 c 0.28174,-0.73421 -7.16346,-15.13062 -16.54489,-31.99201 C 634.67571,783.74131 627,769.27991 627,768.46626 c 0,-1.36888 9.555,-8.1163 16.79595,-11.86074 9.27902,-4.79837 19.20405,0.94371 19.20405,11.11042 0,5.47555 -2.8483,10.09775 -9.59704,15.57402 -3.24663,2.63448 -5.90296,5.33448 -5.90296,6 0,1.01809 40.91982,29.55147 42.54992,29.67004 C 691.1131,819.0373 703,809.96645 703,809.0778 c 0,-0.4946 -7.1909,-6.00194 -15.97978,-12.23854 -8.78888,-6.23659 -15.98888,-11.74678 -16,-12.24487 -0.0111,-0.49808 1.03808,-2.29808 2.33157,-4 4.75016,-6.25008 6.02012,-9.83323 6.0587,-17.09439 0.0302,-5.6921 -0.46256,-7.95659 -2.63749,-12.11974 -6.31604,-12.08987 -19.73404,-16.99851 -30.92283,-11.31235 -8.41087,4.27442 -40.82619,23.08427 -41.41035,24.02946 -0.58292,0.94318 37.44774,71.80002 40.31218,75.10765 1.37754,1.59067 1.94137,1.47095 8.40716,-1.78517 3.81183,-1.91961 7.16112,-4.09092 7.44287,-4.82513 z M 730.09908,786.75 c 1.93743,-2.3375 3.80918,-4.73143 4.15943,-5.31983 0.35026,-0.58841 -1.58318,-8.01341 -4.29653,-16.5 -2.71335,-8.4866 -4.9398,-16.04259 -4.94767,-16.79111 C 724.99876,746.65988 747.5877,720 748.85656,720 c 0.42616,0 7.89185,2.95047 16.59043,6.55661 8.69857,3.60613 16.40598,6.33005 17.12758,6.05315 0.72159,-0.2769 3.35799,-3.55333 5.85866,-7.28095 3.5964,-5.36098 4.28751,-7.02901 3.30672,-7.98093 C 790.3627,716.01119 711.70422,680 710.16175,680 708.847,680 694,698.99579 694,700.67794 c 0,0.97217 25.82585,78.99402 29.48356,89.07206 0.83393,2.29774 3.06192,1.28739 6.61552,-3 z m -16.06611,-69.75788 c -2.39279,-7.70434 -4.05094,-14.30749 -3.68476,-14.67366 0.75305,-0.75305 22.38698,8.3151 24.56817,10.29807 1.19722,1.08841 0.21555,2.61037 -6.34399,9.83557 -4.2682,4.70134 -8.30678,8.5479 -8.97462,8.5479 -0.6875,0 -3.10157,-6.07676 -5.5648,-14.00788 z m -488.46223,67.11507 c 5.3729,-2.44032 10.12821,-8.34367 12.07224,-14.98675 1.60497,-5.48447 1.60518,-5.4494 -0.21774,-35.62044 -0.67654,-11.19735 0.21441,-14.92306 3.9788,-16.63823 3.92852,-1.78995 10.41821,2.05702 18.93463,11.22412 4.0438,4.35276 7.81168,7.91411 8.37307,7.91411 0.56139,0 2.64557,-2.08558 4.6315,-4.63461 3.59751,-4.61756 3.60444,-4.64564 1.88378,-7.62997 -2.9211,-5.06639 -18.72426,-20.31363 -23.40058,-22.57739 -2.43242,-1.17752 -6.5043,-2.42627 -9.04864,-2.77501 -18.31705,-2.51063 -26.15069,12.81378 -22.86101,44.72141 C 221.61846,759.6094 219.39013,768 213.30517,768 c -5.74869,0 -13.42056,-6.28252 -22.28593,-18.25 -2.34274,-3.1625 -4.76797,-5.73609 -5.38939,-5.71908 -1.36115,0.0372 -7.62985,8.15913 -7.62985,9.88543 0,2.07361 17.21148,22.27117 21.74392,25.51634 9.08241,6.5029 18.177,8.14897 25.82682,4.6745 z M 502.17189,704.75 l -0.37595,-23.25 2.35203,-2.13129 C 509.56201,674.46278 538.93123,655 540.9202,655 c 1.18906,0 21.97764,3.63502 46.19686,8.07783 24.21921,4.4428 44.56323,7.87437 45.20893,7.62571 2.6828,-1.03316 58.2765,-47.10469 59.42244,-49.24447 0.68663,-1.28214 2.4008,-5.5258 3.80925,-9.43035 l 2.56081,-7.09919 -2.46661,-2.9314 C 689.11107,594.22482 685.45339,574.46135 678.99566,512 c -4.37879,-42.35306 -6.45247,-54.29346 -9.98421,-57.48964 -1.51915,-1.37481 -2.5913,-1.14003 -11.09654,2.42996 -7.47459,3.13739 -9.4824,3.64937 -9.74237,2.48428 -0.51799,-2.32141 6.68017,-23.1582 10.90852,-31.57732 5.15769,-10.26954 12.16373,-18.43872 20.93275,-24.40799 7.11633,-4.84424 7.28924,-5.06437 8.98564,-11.43929 0.95133,-3.575 4.50571,-13.82907 7.89864,-22.78682 9.29331,-24.5355 11.49073,-33.45896 11.5514,-46.90883 0.0284,-6.3023 -0.39265,-11.64071 -0.96341,-12.21392 -0.55765,-0.56004 -23.50765,-5.77006 -51,-11.57782 C 628.99374,292.70485 605.6,287.56032 604.5,287.08032 c -1.1,-0.48 -27.425,-21.83221 -58.5,-47.44935 -37.41857,-30.84655 -57.27027,-46.5858 -58.78077,-46.60379 -4.18689,-0.0499 -50.70333,12.04483 -51.7906,13.46605 -0.58925,0.77024 -1.64921,6.46124 -2.35547,12.64668 -0.70626,6.18543 -1.50317,11.8171 -1.77091,12.51482 -0.26774,0.69772 -12.60588,9.23723 -27.41808,18.97668 -18.64125,12.25717 -27.05352,18.34845 -27.32839,19.78835 -0.21841,1.14413 -0.77031,4.78024 -1.22645,8.08024 l -0.82933,6 -15.5,7.69568 c -8.525,4.23262 -15.798,7.72012 -16.16222,7.75 -0.36422,0.0299 -2.68606,-2.78183 -5.15964,-6.24824 -2.47357,-3.46641 -5.20357,-6.88862 -6.06666,-7.60492 C 329.44137,284.29149 286,278.79202 286,280.31833 c 0,0.17508 3.82016,10.84491 8.48925,23.71074 4.6691,12.86583 8.1566,23.7115 7.75,24.10148 -0.40659,0.38999 -11.28553,1.65662 -24.17543,2.81475 l -23.43617,2.10568 -4.2434,-4.16458 c -3.55289,-3.48689 -4.70234,-4.06717 -7.06382,-3.56602 -5.56924,1.1819 -69.82608,28.55448 -70.07845,29.85251 -0.14191,0.72991 3.57059,6.48635 8.25,12.79209 4.67941,6.30573 8.50802,11.64463 8.50802,11.86421 0,0.21958 -2.25,2.99644 -5,6.17081 -5.27681,6.0911 -6.50823,10.40865 -3.25,11.39499 1.66998,0.50555 31.35977,5.60501 32.63315,5.60501 0.3361,0 2.42723,1.64078 4.64696,3.64617 3.46355,3.12911 8.09798,5.04039 32.68075,13.47786 15.75468,5.40744 29.03826,10.22509 29.51908,10.70591 0.49895,0.49895 0.35686,3.682 -0.33102,7.41523 -1.19943,6.50953 -1.17698,6.64337 4.66414,27.81209 4.83057,17.50643 6.42098,21.93133 8.98609,25.00157 2.98522,3.57308 3.19423,4.43094 4.95383,20.33245 1.01041,9.13108 1.56292,16.87615 1.22782,17.21126 -0.33511,0.3351 -2.68252,-0.18249 -5.21646,-1.15021 -2.73097,-1.04297 -4.96496,-1.39153 -5.48575,-0.85591 -1.07698,1.10763 -25.20954,134.53756 -24.47702,135.33445 0.59635,0.64876 233.13699,65.78418 235.47235,65.95661 1.33471,0.0986 1.47724,-2.77428 1.14797,-23.13748 z m -170.45837,-88.5 c -0.86795,-1.60924 1.10103,-136.46455 2.00568,-137.3692 0.52395,-0.52395 6.8905,-0.81699 14.36101,-0.66101 L 361.5,478.5 l 0.25752,62.12131 c 0.20284,48.92902 -0.01,62.34266 -1,63.16361 C 359.67827,604.67946 333.25812,617 332.41913,617 c -0.1656,0 -0.48313,-0.3375 -0.70561,-0.75 z M 599,606.18081 585.5,601.5 l 0,-62.5 0,-62.5 13.92067,-0.27933 c 7.65637,-0.15363 14.26512,0.0714 14.68611,0.5 0.42099,0.42863 1.08859,30.81683 1.48356,67.52933 0.70178,65.23069 0.67478,66.74843 -1.18611,66.68081 -1.04733,-0.0381 -7.97923,-2.17556 -15.40423,-4.75 z M 368.24219,538.75 368.5,478.5 l 13.75,-0.27822 13.75,-0.27822 0.14348,8.77822 c 0.0789,4.82802 0.41641,26.32822 0.75,47.77822 l 0.60652,39 32.66777,0 c 17.96727,0 32.93877,-0.2715 33.26999,-0.60332 1.17953,-1.18169 1.8726,-16.58683 0.77671,-17.26413 -0.58288,-0.36024 -3.44136,-1.10664 -6.35218,-1.65867 -16.88635,-3.20243 -27.92699,-16.28067 -27.98029,-33.14417 -0.0381,-12.05624 4.15711,-21.92515 14.15676,-33.30267 C 450.1086,480.62083 452,476.69023 452,470.98246 452,462.8804 447.4914,458 440.00659,458 c -3.58517,0 -6.17639,0.95299 -12.23576,4.5 -7.61728,4.45898 -9.77083,5.26901 -9.77083,3.67515 0,-0.45366 1.10454,-4.07234 2.45454,-8.0415 l 2.45454,-7.21665 -5.45454,-3.48923 C 412.64752,444.35276 412,443.5451 412,440.62426 c 0,-1.89487 0.74948,-3.98311 1.75,-4.87597 C 417.32339,432.55944 441.45916,418 443.17206,418 c 1.95612,0 4.76692,4.63584 4.98193,8.21667 0.0754,1.25583 -0.19797,3.94148 -0.6075,5.96811 -0.74456,3.68459 -0.74437,3.68485 3.60445,4.83942 9.99902,2.65464 12.1107,7.41285 12.41556,27.9758 0.12639,8.525 0.67875,16.64349 1.22747,18.0411 1.18141,3.00906 3.7536,5.35655 5.01505,4.57693 0.49315,-0.30478 1.16922,-4.95602 1.50238,-10.33609 1.0115,-16.33407 5.33649,-28.33727 13.47013,-37.38385 11.75414,-13.07343 27.86736,-13.59677 39.22608,-1.27401 4.6295,5.02241 7.15843,10.07654 9.45628,18.89861 1.81021,6.94983 1.95819,10.47731 0.43956,10.47731 -0.6031,0 -3.1906,-1.84618 -5.75,-4.10261 -7.16646,-6.31816 -14.94796,-9.65693 -16.53229,-7.09343 -0.27329,0.44218 2.36193,3.36097 5.85603,6.4862 8.63926,7.7272 12.52281,15.4214 12.52281,24.81055 0,3.72969 -0.37253,7.01149 -0.82784,7.29289 -0.45532,0.2814 -2.42664,-1.40103 -4.38072,-3.73874 -3.59725,-4.30346 -12.11485,-9.66479 -13.36632,-8.41331 -0.37484,0.37484 0.26971,2.7052 1.43233,5.17858 1.16263,2.47338 2.55932,6.42819 3.10376,8.78846 1.08269,4.69368 1.37824,12.79141 0.46686,12.79141 -0.31456,0 -2.59435,-1.18521 -5.06619,-2.63381 -2.55149,-1.49527 -4.85351,-2.25176 -5.32532,-1.75 -0.45708,0.4861 -1.54271,5.45381 -2.41251,11.03936 -2.77016,17.78909 -7.47421,27.00297 -17.32,33.92489 -6.29538,4.42587 -7.05212,6.2753 -7.22993,17.66956 L 479,573 l 33.92857,0 c 29.51082,0 34.13318,-0.20461 35.5,-1.57143 1.35393,-1.35392 1.59058,-5.81767 1.70977,-32.25 0.0761,-16.87321 0.41359,-38.10357 0.75,-47.17857 L 551.5,475.5 560,475.18592 c 4.675,-0.17275 10.8625,-0.0279 13.75,0.32195 l 5.25,0.63604 0,60.42805 C 579,576.90952 578.66149,597 577.98183,597 c -0.55999,0 -5.54257,-2.27045 -11.07239,-5.04545 l -10.05423,-5.04544 -82.6776,0.85351 -82.67761,0.85351 -10.5,5.17756 c -5.775,2.84766 -11.06601,5.18403 -11.75781,5.19193 -0.99947,0.0114 -1.20485,-12.36018 -1,-60.23562 z m 63.39417,-60.38636 c -3.94139,-3.9414 -3.73947,-10.25765 0.44037,-13.77475 4.30472,-3.62219 9.16886,-3.49715 13.00019,0.33419 C 451.38696,471.23311 447.39142,481 438.5,481 c -3.23406,0 -4.84669,-0.61942 -6.86364,-2.63636 z M 332.63899,444.75 C 330.91827,362.26697 330.89566,351 332.45091,351 c 2.21463,0 26.89634,10.94922 27.76663,12.31774 0.41351,0.65024 0.75873,25.59476 0.76715,55.43226 L 361,473 l -13.88584,0 -13.88583,0 -0.58934,-28.25 z m 35.02445,-5.5 c -1.09939,-56.19939 -0.91809,-72.25 0.81612,-72.25 0.81376,0 6.10126,2.06676 11.75,4.5928 L 390.5,376.18561 472,375.76 l 81.5,-0.42561 12.23117,-5.10218 c 6.72714,-2.80619 12.43886,-4.76611 12.69272,-4.35536 0.74763,1.20968 0.88187,101.8194 0.13746,103.02388 -0.91036,1.473 -26.19042,1.50847 -27.0992,0.038 -0.36074,-0.58368 -1.07656,-18.02118 -1.59071,-38.75 -0.51415,-20.72881 -1.15623,-38.31587 -1.42685,-39.08236 -0.41777,-1.18326 -11.77128,-1.28641 -75.21831,-0.68343 -67.262,0.63924 -74.85114,0.87246 -75.97628,2.33474 -0.95125,1.23629 -1.25,11.01943 -1.25,40.93343 L 396,473 l -13.83817,0 -13.83817,0 -0.66022,-33.75 z m 231.2343,30.97274 -13.60226,-0.27726 -0.65343,-38.22274 c -0.86296,-50.47847 -1.00292,-68.70247 -0.53094,-69.13319 C 585.58447,361.24499 611.23025,345 611.87954,345 c 0.79291,0 1.42345,20.62994 2.76866,90.58475 0.55341,28.77907 0.43723,34.14939 -0.74638,34.5 -0.771,0.22839 -7.52284,0.29048 -15.00408,0.13799 z M 163,718.98499 c 0,-0.93344 -4.66737,-9.97442 -10.37193,-20.09107 C 146.9235,688.77726 142.42874,680.05 142.63969,679.5 c 0.21096,-0.55 4.54083,-3.3606 9.62194,-6.24578 10.98437,-6.2372 8.66886,-7.6725 21.43905,13.28929 5.00552,8.21639 9.44604,14.44771 10.29932,14.45291 2.47633,0.0151 10,-4.39072 10,-5.85593 0,-0.74962 -4.27853,-8.77516 -9.50784,-17.83452 -5.22932,-9.05936 -9.27912,-16.84166 -8.99956,-17.29399 1.06385,-1.72135 16.59247,-10.19331 17.8202,-9.72219 0.70849,0.27188 5.9425,8.30539 11.63114,17.85226 5.68863,9.54687 11.00594,18.12642 11.81623,19.06565 1.38085,1.6006 1.77509,1.55476 6.28577,-0.73098 2.64689,-1.34128 5.09532,-2.89627 5.44096,-3.45553 0.55855,-0.90375 -28.98769,-51.59487 -31.94451,-54.80574 -0.94563,-1.02688 -8.64094,3.18277 -38.36265,20.98594 C 137.73088,661.45015 121,671.82688 121,672.26079 c 0,1.38426 29.25301,51.18842 30.8161,52.46535 1.21709,0.99429 2.41642,0.72786 6.3424,-1.40893 2.85176,-1.55212 4.8415,-3.33256 4.8415,-4.33222 z m 652.45762,-31.60927 c 2.00264,-3.64335 3.50644,-7.27989 3.34177,-8.08121 -0.16466,-0.80131 -13.75877,-8.50788 -30.20911,-17.12572 -16.45035,-8.61783 -29.95035,-16.11879 -30,-16.66879 -0.057,-0.63141 14.05704,-1.45616 38.29231,-2.2376 27.84955,-0.89797 38.80681,-1.58403 39.92844,-2.5 0.85021,-0.69432 4.35662,-7.1124 7.79201,-14.2624 4.80515,-10.00086 5.97518,-13.27743 5.07156,-14.20256 -1.99917,-2.04675 -75.05265,-40.09061 -76.14496,-39.65379 -1.26145,0.50446 -8.53203,13.78758 -8.5235,15.57217 0.003,0.7063 13.04774,8.03418 28.98748,16.28418 15.93974,8.25 28.98777,15.45 28.99561,16 0.009,0.63908 -13.25017,1.19601 -36.73749,1.54308 -20.21346,0.29869 -36.86142,0.63619 -36.99548,0.75 -1.42089,1.20625 -14.9212,30.12015 -14.42423,30.89267 0.8289,1.28849 74.22835,40.31132 75.8262,40.31302 0.63703,6.8e-4 2.79675,-2.97969 4.79939,-6.62305 z M 183.44684,616.58666 C 185.76499,615.61807 187,614.43603 187,613.1859 c 0,-2.25835 -19.86937,-60.25594 -21.10795,-61.61295 -0.94746,-1.03805 -10.49426,0.85202 -12.43371,2.46162 -0.90371,0.75002 -0.33407,3.76142 2.35726,12.46162 1.95191,6.30993 3.24567,11.77588 2.875,12.14654 -0.37066,0.37066 -16.09018,5.03574 -34.93227,10.36683 C 97.563228,596.42108 89.423193,599.0942 89.173668,600.36685 88.750627,602.52448 92.894896,615 94.034684,615 c 0.479393,0 16.431146,-4.54299 35.448336,-10.09553 19.01719,-5.55254 35.12577,-9.88354 35.79684,-9.62444 0.67108,0.2591 2.95348,5.74917 5.07201,12.20016 3.84633,11.71221 3.85595,11.72825 6.69684,11.16007 1.56473,-0.31295 4.44389,-1.23707 6.39813,-2.0536 z M 840.5,567.64065 c 7.49155,-2.00117 13.23732,-5.28273 18.54762,-10.59303 5.53992,-5.53992 8.42844,-10.75513 10.41215,-18.79907 1.90015,-7.70513 4.13223,-35.06684 2.9531,-36.2004 -0.50208,-0.48268 -3.44455,-1.18585 -6.53883,-1.5626 l -5.62596,-0.685 -0.47351,12.34972 c -0.36588,9.54251 -0.97886,13.65724 -2.69667,18.10182 -3.27893,8.48374 -8.87964,15.01456 -15.76525,18.38337 -20.36298,9.96268 -47.26891,-6.2708 -47.30288,-28.53981 -0.005,-3.5224 1.14761,-12.46752 2.56218,-19.87805 1.57264,-8.23861 2.21312,-13.83253 1.64843,-14.39722 -0.50794,-0.50794 -3.80281,-0.78781 -7.32195,-0.62195 L 784.5,485.5 l -2.82035,19 c -3.26137,21.97098 -2.86949,30.24505 1.87601,39.60983 5.5128,10.87899 16.98929,19.92983 29.55667,23.30962 6.84636,1.84122 20.89812,1.95471 27.38767,0.2212 z M 123.26342,539.49817 C 144.03329,537.57418 161.26331,536 161.55235,536 c 0.28903,0 0.3955,-3.9375 0.23658,-8.75 L 161.5,518.5 l -3.5048,-0.29575 c -1.92764,-0.16266 -21.07678,1.52484 -42.55366,3.75 C 93.964672,524.17941 75.787634,526 75.048126,526 c -1.066157,0 -1.216004,1.66708 -0.723694,8.05124 0.341477,4.42818 0.906705,8.51373 1.256062,9.079 0.375327,0.60729 2.534375,0.79014 5.277351,0.44694 2.553185,-0.31946 21.635695,-2.15501 42.405575,-4.07901 z m -0.93135,-45.92114 c 1.02276,-2.66528 0.98733,-29.65763 -0.0403,-30.68524 -0.55016,-0.55016 -3.65323,-0.86338 -6.89572,-0.69604 l -5.89542,0.30425 -0.74262,6 c -1.1513,9.30188 -0.53204,8.84848 -11.025613,8.07246 -5.077829,-0.37552 -9.992502,-0.90457 -10.921495,-1.17566 -2.452067,-0.71556 -4.120421,-10.13268 -3.604909,-20.34813 0.705578,-13.98182 7.122061,-24.08566 18.671587,-29.40157 6.55404,-3.01664 19.71553,-3.00485 26.29807,0.0236 6.96836,3.20591 13.13314,9.42431 16.4389,16.58186 L 147.5,448.5 l 0,21.5 0,21.5 4.82769,0.30796 c 2.65524,0.16938 5.40059,-0.16749 6.10078,-0.7486 1.55608,-1.29143 4.19864,-41.44324 3.20794,-48.74243 -2.39994,-17.68203 -13.0368,-31.94433 -28.67877,-38.45356 -4.52017,-1.88102 -7.35604,-2.27906 -16.5095,-2.31725 -10.77654,-0.045 -11.23892,0.0463 -18.5606,3.6649 -19.125496,9.45233 -28.968379,28.8796 -28.951877,57.14341 0.007,11.98916 2.090064,28.0713 3.866013,29.84725 0.970694,0.97069 21.972124,2.4036 38.841334,2.6501 7.95019,0.11618 10.26106,-0.15941 10.68906,-1.27475 z M 868.18778,456.5 c 0.37828,-4.95 0.82828,-18.88913 1,-30.97585 L 869.5,403.5483 l -5.49378,-0.80101 c -4.42284,-0.64486 -5.71052,-0.50459 -6.60564,0.71956 -0.62604,0.85617 -1.40552,8.40516 -1.78394,17.27686 -0.36964,8.66596 -0.94272,18.34379 -1.27352,21.50629 l -0.60145,5.75 -9.12084,-0.0136 C 829.6447,447.96392 831,450.05128 831,427.00837 l 0,-19.75837 -3.125,-0.625 c -4.78267,-0.95653 -8.68156,-0.747 -9.45735,0.50825 -0.38522,0.62329 -1.08719,9.28579 -1.55995,19.25 -0.47275,9.96421 -1.07001,18.67925 -1.32724,19.36675 -0.5163,1.37991 -9.06781,1.68635 -16.94178,0.6071 l -4.69047,-0.6429 0.3009,-23.08323 0.30089,-23.08322 -5.43203,-0.79185 c -3.20898,-0.46778 -5.81701,-0.40686 -6.37275,0.14888 -1.19503,1.19503 -3.152,63.04219 -2.02982,64.14975 0.96044,0.94792 50.80729,2.70516 72.3346,2.54999 l 14.5,-0.10452 0.68778,-9 z M 289.48213,230.72187 c 98.44018,-60.03274 179.68995,-109.15044 180.55505,-109.15044 0.8651,0 83.89814,48.44364 184.51787,107.65253 100.61972,59.2089 183.66316,107.92688 184.54098,108.26219 1.36931,0.52305 1.6882,-0.78219 2.24483,-9.18825 0.35683,-5.38884 0.65112,-13.05402 0.65397,-17.03371 l 0.005,-7.23581 -3.75,-2.45827 C 825.37445,293.12971 470.37321,84 468.92103,84 c -0.98512,0 -49.60681,29.47856 -108.04818,65.5079 -58.44138,36.02935 -106.5931,65.16685 -107.00384,64.75 -0.41074,-0.41684 -1.37923,-5.37534 -2.15221,-11.01887 -0.77298,-5.64354 -1.68573,-10.54129 -2.02834,-10.8839 -1.08024,-1.08024 -52.61574,1.84975 -53.58288,3.04639 -0.51263,0.63429 -0.54777,12.50528 -0.0831,28.09178 0.44255,14.84631 0.47682,27.57907 0.0762,28.295 -0.40066,0.71594 -20.94925,14.05128 -45.66354,29.63408 L 105.5,309.75475 l 0.17044,10.37263 c 0.0937,5.70494 0.46787,12.76921 0.83142,15.69837 0.54921,4.42521 0.94312,5.21759 2.32956,4.68615 0.91772,-0.35177 82.21054,-49.75729 180.65071,-109.79003 z"
       id="path3947"
       style="fill:#cf053a" />
    <path
       d="M 415,910.89357 C 224.68372,885.73206 71.982241,740.91631 37.617859,553 32.236076,523.57055 31.821862,517.00022 32.25488,467.93144 32.699959,417.49589 33.253215,411.92491 41.470819,375.13215 67.348195,259.27111 141.87485,156.67999 245.26572,94.594307 c 19.31034,-11.595764 51.87625,-27.785675 53.20929,-26.45263 0.24841,0.248405 -0.18026,2.551315 -0.95259,5.117577 C 295.60539,79.629046 294,94.887496 294,106.73808 c 0,13.87171 0.0712,13.80217 -14.89536,14.55468 -9.67614,0.48651 -13.78614,1.20192 -21.22713,3.69488 -10.41443,3.48915 -21.03011,10.03616 -26.34923,16.25035 -4.58997,5.36235 -4.74774,7.92783 -0.27828,4.52498 6.40272,-4.87474 12.00588,-7.06375 19.25,-7.52049 6.78199,-0.4276 12.17649,0.4552 38,6.21861 11.31446,2.52522 24.84172,2.98864 33.47637,1.14684 22.73778,-4.85004 35.1721,-19.58498 40.96733,-48.547173 1.14887,-5.741583 2.76443,-11.185756 3.59015,-12.098161 1.23863,-1.368669 4.42885,-1.762614 18.23373,-2.25159 24.78876,-0.878031 39.98958,-5.341152 58.10579,-17.060468 C 455.58183,57.429477 461.18957,50.644777 469.0334,34 c 0.593,-1.258369 3.58709,-1.479251 18.58673,-1.371193 19.50283,0.140499 39.3591,2.051318 61.57922,5.925922 C 727.96029,69.72593 870.11016,208.26821 906.03497,386.3343 912.06722,416.23398 913,427.84052 913,473 c 0,35.23968 -0.28143,43.11632 -2.02632,56.71175 C 904.528,579.93365 888.3242,631.82847 865.3009,675.98489 798.1671,804.74088 672.51178,892.62036 529.21175,911.03536 507.21007,913.86272 436.79682,913.77531 415,910.89357 z m 44.45102,-31.25387 c 1.3617,-6.71724 1.51289,-9.54397 0.54256,-10.14367 -0.58728,-0.36296 -10.69717,-1.64413 -22.46641,-2.84704 -11.76925,-1.20292 -21.70145,-2.48993 -22.07156,-2.86004 -0.72312,-0.72313 1.06051,-21.6384 1.91846,-22.49636 0.28333,-0.28333 9.1291,0.0359 19.65726,0.70941 10.71625,0.68554 19.48737,0.84457 19.92649,0.36128 1.23811,-1.36265 2.05305,-11.23853 0.98201,-11.90047 -0.52764,-0.3261 -9.16745,-1.31028 -19.19959,-2.18707 -10.03213,-0.8768 -18.81404,-2.03701 -19.51535,-2.57824 -1.58207,-1.22097 -0.60026,-18.60851 1.14509,-20.27915 0.81091,-0.7762 7.28822,-0.62831 22.93717,0.5237 11.99393,0.88294 22.18575,1.36968 22.64849,1.08165 1.18508,-0.73765 2.42608,-11.67376 1.39448,-12.28854 -1.44748,-0.86262 -63.29631,-5.1223 -64.01008,-4.40853 -1.23209,1.23208 -7.20266,86.30876 -6.09004,86.77904 1.16634,0.49298 59.54693,5.39903 60.50863,5.08488 0.69225,-0.22613 1.45382,-1.37402 1.69239,-2.55085 z m 99.87275,-6.77586 c 3.11154,-0.62488 6.04707,-1.63738 6.52341,-2.25 0.51341,-0.66028 -0.66686,-8.03626 -2.89849,-18.11384 -2.83652,-12.80914 -3.47911,-17.26936 -2.60663,-18.09264 0.63687,-0.60095 8.35794,-2.58364 17.15794,-4.40598 22.17176,-4.59141 20.89736,-3.93881 20.0641,-10.27445 -0.37809,-2.87481 -1.10904,-5.65378 -1.62432,-6.17548 -0.58982,-0.59717 -7.74853,0.29216 -19.32447,2.40068 -10.11317,1.84208 -19.01672,3.10781 -19.78566,2.81274 -1.82591,-0.70067 -5.36577,-18.62875 -3.95646,-20.03806 0.54461,-0.54461 10.5674,-2.97295 22.27286,-5.39632 11.70546,-2.42336 21.57164,-4.8737 21.92483,-5.44518 0.79327,-1.28353 -0.75326,-9.96769 -1.99651,-11.21094 -1.01317,-1.01317 -60.98416,10.83862 -62.4989,12.35137 -0.77075,0.76974 11.89666,66.96878 15.54254,81.22426 1.0927,4.27245 1.95057,4.47255 11.20576,2.61384 z M 353.46504,856.46709 c 17.32656,-4.51299 30.34079,-18.49553 34.1605,-36.70217 3.43728,-16.38376 -3.11346,-33.09424 -16.28735,-41.5479 -7.23613,-4.64341 -47.40365,-22.55605 -48.36128,-21.56663 -2.14028,2.21132 -40.05159,77.71262 -39.60545,78.87522 0.55233,1.43936 1.68974,1.98174 27.2732,13.00532 22.4158,9.65867 30.47364,11.15208 42.82038,7.93616 z m -22.69028,-14.48825 c -2.04888,-0.51551 -8.72555,-3.44505 -14.83703,-6.51007 -8.75609,-4.39135 -10.97902,-5.91879 -10.48548,-7.20492 1.32054,-3.44129 25.75456,-47.83535 27.06819,-49.1801 1.19043,-1.21862 3.16936,-0.73497 14.18152,3.46592 10.82012,4.12763 13.52304,5.60507 17.48914,9.55972 10.52002,10.48968 9.81989,27.01765 -1.68388,39.75094 -7.2597,8.03562 -21.70448,12.64162 -31.73246,10.11851 z m 329.82727,-9.38412 c 0.28174,-0.73421 -7.16346,-15.13062 -16.54489,-31.99201 C 634.67571,783.74131 627,769.27991 627,768.46626 c 0,-1.36888 9.555,-8.1163 16.79595,-11.86074 9.27902,-4.79837 19.20405,0.94371 19.20405,11.11042 0,5.47555 -2.8483,10.09775 -9.59704,15.57402 -3.24663,2.63448 -5.90296,5.33448 -5.90296,6 0,1.01809 40.91982,29.55147 42.54992,29.67004 C 691.1131,819.0373 703,809.96645 703,809.0778 c 0,-0.4946 -7.1909,-6.00194 -15.97978,-12.23854 -8.78888,-6.23659 -15.98888,-11.74678 -16,-12.24487 -0.0111,-0.49808 1.03808,-2.29808 2.33157,-4 4.75016,-6.25008 6.02012,-9.83323 6.0587,-17.09439 0.0302,-5.6921 -0.46256,-7.95659 -2.63749,-12.11974 -6.31604,-12.08987 -19.73404,-16.99851 -30.92283,-11.31235 -8.41087,4.27442 -40.82619,23.08427 -41.41035,24.02946 -0.58292,0.94318 37.44774,71.80002 40.31218,75.10765 1.37754,1.59067 1.94137,1.47095 8.40716,-1.78517 3.81183,-1.91961 7.16112,-4.09092 7.44287,-4.82513 z M 730.09908,786.75 c 1.93743,-2.3375 3.80918,-4.73143 4.15943,-5.31983 0.35026,-0.58841 -1.58318,-8.01341 -4.29653,-16.5 -2.71335,-8.4866 -4.9398,-16.04259 -4.94767,-16.79111 C 724.99876,746.65988 747.5877,720 748.85656,720 c 0.42616,0 7.89185,2.95047 16.59043,6.55661 8.69857,3.60613 16.40598,6.33005 17.12758,6.05315 0.72159,-0.2769 3.35799,-3.55333 5.85866,-7.28095 3.5964,-5.36098 4.28751,-7.02901 3.30672,-7.98093 C 790.3627,716.01119 711.70422,680 710.16175,680 708.847,680 694,698.99579 694,700.67794 c 0,0.97217 25.82585,78.99402 29.48356,89.07206 0.83393,2.29774 3.06192,1.28739 6.61552,-3 z m -16.06611,-69.75788 c -2.39279,-7.70434 -4.05094,-14.30749 -3.68476,-14.67366 0.75305,-0.75305 22.38698,8.3151 24.56817,10.29807 1.19722,1.08841 0.21555,2.61037 -6.34399,9.83557 -4.2682,4.70134 -8.30678,8.5479 -8.97462,8.5479 -0.6875,0 -3.10157,-6.07676 -5.5648,-14.00788 z m -488.46223,67.11507 c 5.3729,-2.44032 10.12821,-8.34367 12.07224,-14.98675 1.60497,-5.48447 1.60518,-5.4494 -0.21774,-35.62044 -0.67654,-11.19735 0.21441,-14.92306 3.9788,-16.63823 3.92852,-1.78995 10.41821,2.05702 18.93463,11.22412 4.0438,4.35276 7.81168,7.91411 8.37307,7.91411 0.56139,0 2.64557,-2.08558 4.6315,-4.63461 3.59751,-4.61756 3.60444,-4.64564 1.88378,-7.62997 -2.9211,-5.06639 -18.72426,-20.31363 -23.40058,-22.57739 -2.43242,-1.17752 -6.5043,-2.42627 -9.04864,-2.77501 -18.31705,-2.51063 -26.15069,12.81378 -22.86101,44.72141 C 221.61846,759.6094 219.39013,768 213.30517,768 c -5.74869,0 -13.42056,-6.28252 -22.28593,-18.25 -2.34274,-3.1625 -4.76797,-5.73609 -5.38939,-5.71908 -1.36115,0.0372 -7.62985,8.15913 -7.62985,9.88543 0,2.07361 17.21148,22.27117 21.74392,25.51634 9.08241,6.5029 18.177,8.14897 25.82682,4.6745 z M 502.17189,704.75 l -0.37595,-23.25 2.35203,-2.13129 C 509.56201,674.46278 538.93123,655 540.9202,655 c 1.18906,0 21.97764,3.63502 46.19686,8.07783 24.21921,4.4428 44.56323,7.87437 45.20893,7.62571 2.6828,-1.03316 58.2765,-47.10469 59.42244,-49.24447 0.68663,-1.28214 2.4008,-5.5258 3.80925,-9.43035 l 2.56081,-7.09919 -2.46661,-2.9314 C 689.11107,594.22482 685.45339,574.46135 678.99566,512 c -4.37879,-42.35306 -6.45247,-54.29346 -9.98421,-57.48964 -1.51915,-1.37481 -2.5913,-1.14003 -11.09654,2.42996 -7.47459,3.13739 -9.4824,3.64937 -9.74237,2.48428 -0.51799,-2.32141 6.68017,-23.1582 10.90852,-31.57732 5.15769,-10.26954 12.16373,-18.43872 20.93275,-24.40799 7.11633,-4.84424 7.28924,-5.06437 8.98564,-11.43929 0.95133,-3.575 4.50571,-13.82907 7.89864,-22.78682 9.29331,-24.5355 11.49073,-33.45896 11.5514,-46.90883 0.0284,-6.3023 -0.39265,-11.64071 -0.96341,-12.21392 -0.55765,-0.56004 -23.50765,-5.77006 -51,-11.57782 C 628.99374,292.70485 605.6,287.56032 604.5,287.08032 c -1.1,-0.48 -27.425,-21.83221 -58.5,-47.44935 -37.41857,-30.84655 -57.27027,-46.5858 -58.78077,-46.60379 -4.18689,-0.0499 -50.70333,12.04483 -51.7906,13.46605 -0.58925,0.77024 -1.64921,6.46124 -2.35547,12.64668 -0.70626,6.18543 -1.50317,11.8171 -1.77091,12.51482 -0.26774,0.69772 -12.60588,9.23723 -27.41808,18.97668 -18.64125,12.25717 -27.05352,18.34845 -27.32839,19.78835 -0.21841,1.14413 -0.77031,4.78024 -1.22645,8.08024 l -0.82933,6 -15.5,7.69568 c -8.525,4.23262 -15.798,7.72012 -16.16222,7.75 -0.36422,0.0299 -2.68606,-2.78183 -5.15964,-6.24824 -2.47357,-3.46641 -5.20357,-6.88862 -6.06666,-7.60492 C 329.44137,284.29149 286,278.79202 286,280.31833 c 0,0.17508 3.82016,10.84491 8.48925,23.71074 4.6691,12.86583 8.1566,23.7115 7.75,24.10148 -0.40659,0.38999 -11.28553,1.65662 -24.17543,2.81475 l -23.43617,2.10568 -4.2434,-4.16458 c -3.55289,-3.48689 -4.70234,-4.06717 -7.06382,-3.56602 -5.56924,1.1819 -69.82608,28.55448 -70.07845,29.85251 -0.14191,0.72991 3.57059,6.48635 8.25,12.79209 4.67941,6.30573 8.50802,11.64463 8.50802,11.86421 0,0.21958 -2.25,2.99644 -5,6.17081 -5.27681,6.0911 -6.50823,10.40865 -3.25,11.39499 1.66998,0.50555 31.35977,5.60501 32.63315,5.60501 0.3361,0 2.42723,1.64078 4.64696,3.64617 3.46355,3.12911 8.09798,5.04039 32.68075,13.47786 15.75468,5.40744 29.03826,10.22509 29.51908,10.70591 0.49895,0.49895 0.35686,3.682 -0.33102,7.41523 -1.19943,6.50953 -1.17698,6.64337 4.66414,27.81209 4.83057,17.50643 6.42098,21.93133 8.98609,25.00157 2.98522,3.57308 3.19423,4.43094 4.95383,20.33245 1.01041,9.13108 1.56292,16.87615 1.22782,17.21126 -0.33511,0.3351 -2.68252,-0.18249 -5.21646,-1.15021 -2.73097,-1.04297 -4.96496,-1.39153 -5.48575,-0.85591 -1.07698,1.10763 -25.20954,134.53756 -24.47702,135.33445 0.59635,0.64876 233.13699,65.78418 235.47235,65.95661 1.33471,0.0986 1.47724,-2.77428 1.14797,-23.13748 z m -170.45837,-88.5 c -0.86795,-1.60924 1.10103,-136.46455 2.00568,-137.3692 0.52395,-0.52395 6.8905,-0.81699 14.36101,-0.66101 L 361.5,478.5 l 0.25752,62.12131 c 0.20284,48.92902 -0.01,62.34266 -1,63.16361 C 359.67827,604.67946 333.25812,617 332.41913,617 c -0.1656,0 -0.48313,-0.3375 -0.70561,-0.75 z M 599,606.18081 585.5,601.5 l 0,-62.5 0,-62.5 13.92067,-0.27933 c 7.65637,-0.15363 14.26512,0.0714 14.68611,0.5 0.42099,0.42863 1.08859,30.81683 1.48356,67.52933 0.70178,65.23069 0.67478,66.74843 -1.18611,66.68081 -1.04733,-0.0381 -7.97923,-2.17556 -15.40423,-4.75 z M 368.24219,538.75 368.5,478.5 l 13.59063,-0.27718 13.59063,-0.27718 0.65937,19.68799 C 396.70328,508.46202 397,529.8227 397,545.10179 c 0,17.21304 0.37575,28.0124 0.98782,28.39068 0.5433,0.33578 34.33312,0.29038 75.08848,-0.10089 61.778,-0.5931 74.3354,-0.94613 75.51218,-2.12292 1.14769,-1.14769 1.43738,-7.14562 1.54986,-32.09009 0.0761,-16.87321 0.41359,-38.10357 0.75,-47.17857 L 551.5,475.5 560,475.18592 c 4.675,-0.17275 10.8625,-0.0279 13.75,0.32195 l 5.25,0.63604 0,60.42805 C 579,576.90952 578.66149,597 577.98183,597 c -0.55999,0 -5.54257,-2.27045 -11.07239,-5.04545 l -10.05423,-5.04544 -82.6776,0.85351 -82.67761,0.85351 -10.5,5.17756 c -5.775,2.84766 -11.06601,5.18403 -11.75781,5.19193 -0.99947,0.0114 -1.20485,-12.36018 -1,-60.23562 z m -35.6032,-94 C 330.91827,362.26697 330.89566,351 332.45091,351 c 2.21463,0 26.89634,10.94922 27.76663,12.31774 0.41351,0.65024 0.75873,25.59476 0.76715,55.43226 L 361,473 l -13.88584,0 -13.88583,0 -0.58934,-28.25 z m 35.02445,-5.5 c -1.09939,-56.19939 -0.91809,-72.25 0.81612,-72.25 0.81376,0 6.10126,2.06676 11.75,4.5928 L 390.5,376.18561 472,375.76 l 81.5,-0.42561 12.23117,-5.10218 c 6.72714,-2.80619 12.43886,-4.76611 12.69272,-4.35536 0.74763,1.20968 0.88187,101.8194 0.13746,103.02388 -0.91036,1.473 -26.19042,1.50847 -27.0992,0.038 -0.36074,-0.58368 -1.07656,-18.02118 -1.59071,-38.75 -0.51415,-20.72881 -1.15623,-38.31587 -1.42685,-39.08236 -0.41777,-1.18326 -11.77128,-1.28641 -75.21831,-0.68343 -67.262,0.63924 -74.85114,0.87246 -75.97628,2.33474 -0.95125,1.23629 -1.25,11.01943 -1.25,40.93343 L 396,473 l -13.83817,0 -13.83817,0 -0.66022,-33.75 z m 231.2343,30.97274 -13.60226,-0.27726 -0.65343,-38.22274 c -0.86296,-50.47847 -1.00292,-68.70247 -0.53094,-69.13319 C 585.58447,361.24499 611.23025,345 611.87954,345 c 0.79291,0 1.42345,20.62994 2.76866,90.58475 0.55341,28.77907 0.43723,34.14939 -0.74638,34.5 -0.771,0.22839 -7.52284,0.29048 -15.00408,0.13799 z M 163,718.98499 c 0,-0.93344 -4.66737,-9.97442 -10.37193,-20.09107 C 146.9235,688.77726 142.42874,680.05 142.63969,679.5 c 0.21096,-0.55 4.54083,-3.3606 9.62194,-6.24578 10.98437,-6.2372 8.66886,-7.6725 21.43905,13.28929 5.00552,8.21639 9.44604,14.44771 10.29932,14.45291 2.47633,0.0151 10,-4.39072 10,-5.85593 0,-0.74962 -4.27853,-8.77516 -9.50784,-17.83452 -5.22932,-9.05936 -9.27912,-16.84166 -8.99956,-17.29399 1.06385,-1.72135 16.59247,-10.19331 17.8202,-9.72219 0.70849,0.27188 5.9425,8.30539 11.63114,17.85226 5.68863,9.54687 11.00594,18.12642 11.81623,19.06565 1.38085,1.6006 1.77509,1.55476 6.28577,-0.73098 2.64689,-1.34128 5.09532,-2.89627 5.44096,-3.45553 0.55855,-0.90375 -28.98769,-51.59487 -31.94451,-54.80574 -0.94563,-1.02688 -8.64094,3.18277 -38.36265,20.98594 C 137.73088,661.45015 121,671.82688 121,672.26079 c 0,1.38426 29.25301,51.18842 30.8161,52.46535 1.21709,0.99429 2.41642,0.72786 6.3424,-1.40893 2.85176,-1.55212 4.8415,-3.33256 4.8415,-4.33222 z m 652.45762,-31.60927 c 2.00264,-3.64335 3.50644,-7.27989 3.34177,-8.08121 -0.16466,-0.80131 -13.75877,-8.50788 -30.20911,-17.12572 -16.45035,-8.61783 -29.95035,-16.11879 -30,-16.66879 -0.057,-0.63141 14.05704,-1.45616 38.29231,-2.2376 27.84955,-0.89797 38.80681,-1.58403 39.92844,-2.5 0.85021,-0.69432 4.35662,-7.1124 7.79201,-14.2624 4.80515,-10.00086 5.97518,-13.27743 5.07156,-14.20256 -1.99917,-2.04675 -75.05265,-40.09061 -76.14496,-39.65379 -1.26145,0.50446 -8.53203,13.78758 -8.5235,15.57217 0.003,0.7063 13.04774,8.03418 28.98748,16.28418 15.93974,8.25 28.98777,15.45 28.99561,16 0.009,0.63908 -13.25017,1.19601 -36.73749,1.54308 -20.21346,0.29869 -36.86142,0.63619 -36.99548,0.75 -1.42089,1.20625 -14.9212,30.12015 -14.42423,30.89267 0.8289,1.28849 74.22835,40.31132 75.8262,40.31302 0.63703,6.8e-4 2.79675,-2.97969 4.79939,-6.62305 z M 183.44684,616.58666 C 185.76499,615.61807 187,614.43603 187,613.1859 c 0,-2.25835 -19.86937,-60.25594 -21.10795,-61.61295 -0.94746,-1.03805 -10.49426,0.85202 -12.43371,2.46162 -0.90371,0.75002 -0.33407,3.76142 2.35726,12.46162 1.95191,6.30993 3.24567,11.77588 2.875,12.14654 -0.37066,0.37066 -16.09018,5.03574 -34.93227,10.36683 C 97.563228,596.42108 89.423193,599.0942 89.173668,600.36685 88.750627,602.52448 92.894896,615 94.034684,615 c 0.479393,0 16.431146,-4.54299 35.448336,-10.09553 19.01719,-5.55254 35.12577,-9.88354 35.79684,-9.62444 0.67108,0.2591 2.95348,5.74917 5.07201,12.20016 3.84633,11.71221 3.85595,11.72825 6.69684,11.16007 1.56473,-0.31295 4.44389,-1.23707 6.39813,-2.0536 z M 840.5,567.64065 c 7.49155,-2.00117 13.23732,-5.28273 18.54762,-10.59303 5.53992,-5.53992 8.42844,-10.75513 10.41215,-18.79907 1.90015,-7.70513 4.13223,-35.06684 2.9531,-36.2004 -0.50208,-0.48268 -3.44455,-1.18585 -6.53883,-1.5626 l -5.62596,-0.685 -0.47351,12.34972 c -0.36588,9.54251 -0.97886,13.65724 -2.69667,18.10182 -3.27893,8.48374 -8.87964,15.01456 -15.76525,18.38337 -20.36298,9.96268 -47.26891,-6.2708 -47.30288,-28.53981 -0.005,-3.5224 1.14761,-12.46752 2.56218,-19.87805 1.57264,-8.23861 2.21312,-13.83253 1.64843,-14.39722 -0.50794,-0.50794 -3.80281,-0.78781 -7.32195,-0.62195 L 784.5,485.5 l -2.82035,19 c -3.26137,21.97098 -2.86949,30.24505 1.87601,39.60983 5.5128,10.87899 16.98929,19.92983 29.55667,23.30962 6.84636,1.84122 20.89812,1.95471 27.38767,0.2212 z M 123.26342,539.49817 C 144.03329,537.57418 161.26331,536 161.55235,536 c 0.28903,0 0.3955,-3.9375 0.23658,-8.75 L 161.5,518.5 l -3.5048,-0.29575 c -1.92764,-0.16266 -21.07678,1.52484 -42.55366,3.75 C 93.964672,524.17941 75.787634,526 75.048126,526 c -1.066157,0 -1.216004,1.66708 -0.723694,8.05124 0.341477,4.42818 0.906705,8.51373 1.256062,9.079 0.375327,0.60729 2.534375,0.79014 5.277351,0.44694 2.553185,-0.31946 21.635695,-2.15501 42.405575,-4.07901 z m -0.93135,-45.92114 c 1.02276,-2.66528 0.98733,-29.65763 -0.0403,-30.68524 -0.55016,-0.55016 -3.65323,-0.86338 -6.89572,-0.69604 l -5.89542,0.30425 -0.74262,6 c -1.1513,9.30188 -0.53204,8.84848 -11.025613,8.07246 -5.077829,-0.37552 -9.992502,-0.90457 -10.921495,-1.17566 -2.452067,-0.71556 -4.120421,-10.13268 -3.604909,-20.34813 0.705578,-13.98182 7.122061,-24.08566 18.671587,-29.40157 6.55404,-3.01664 19.71553,-3.00485 26.29807,0.0236 6.96836,3.20591 13.13314,9.42431 16.4389,16.58186 L 147.5,448.5 l 0,21.5 0,21.5 4.82769,0.30796 c 2.65524,0.16938 5.40059,-0.16749 6.10078,-0.7486 1.55608,-1.29143 4.19864,-41.44324 3.20794,-48.74243 -2.39994,-17.68203 -13.0368,-31.94433 -28.67877,-38.45356 -4.52017,-1.88102 -7.35604,-2.27906 -16.5095,-2.31725 -10.77654,-0.045 -11.23892,0.0463 -18.5606,3.6649 -19.125496,9.45233 -28.968379,28.8796 -28.951877,57.14341 0.007,11.98916 2.090064,28.0713 3.866013,29.84725 0.970694,0.97069 21.972124,2.4036 38.841334,2.6501 7.95019,0.11618 10.26106,-0.15941 10.68906,-1.27475 z M 868.18778,456.5 c 0.37828,-4.95 0.82828,-18.88913 1,-30.97585 L 869.5,403.5483 l -5.49378,-0.80101 c -4.42284,-0.64486 -5.71052,-0.50459 -6.60564,0.71956 -0.62604,0.85617 -1.40552,8.40516 -1.78394,17.27686 -0.36964,8.66596 -0.94272,18.34379 -1.27352,21.50629 l -0.60145,5.75 -9.12084,-0.0136 C 829.6447,447.96392 831,450.05128 831,427.00837 l 0,-19.75837 -3.125,-0.625 c -4.78267,-0.95653 -8.68156,-0.747 -9.45735,0.50825 -0.38522,0.62329 -1.08719,9.28579 -1.55995,19.25 -0.47275,9.96421 -1.07001,18.67925 -1.32724,19.36675 -0.5163,1.37991 -9.06781,1.68635 -16.94178,0.6071 l -4.69047,-0.6429 0.3009,-23.08323 0.30089,-23.08322 -5.43203,-0.79185 c -3.20898,-0.46778 -5.81701,-0.40686 -6.37275,0.14888 -1.19503,1.19503 -3.152,63.04219 -2.02982,64.14975 0.96044,0.94792 50.80729,2.70516 72.3346,2.54999 l 14.5,-0.10452 0.68778,-9 z M 291.07816,265.91295 c 98.13201,-58.45494 179.09689,-106.29516 179.92195,-106.31161 0.82506,-0.0164 83.39046,47.17934 183.47866,104.87954 100.08819,57.7002 182.88814,104.93413 183.99988,104.96429 1.97335,0.0535 2.03892,-0.71627 2.76119,-32.41962 0.57671,-25.31456 0.46648,-32.74485 -0.5,-33.70086 C 838.19735,300.80975 470.64359,84 468.92253,84 c -0.98595,0 -49.60831,29.47856 -108.04968,65.5079 -58.44138,36.02935 -106.5931,65.16685 -107.00384,64.75 -0.41074,-0.41684 -1.37923,-5.37534 -2.15221,-11.01887 -0.77298,-5.64354 -1.68573,-10.54129 -2.02834,-10.8839 -1.08024,-1.08024 -52.61574,1.84975 -53.58288,3.04639 -0.51247,0.63409 -0.54877,12.47097 -0.0859,27.99909 0.44106,14.79534 0.58663,27.46167 0.3235,28.14739 -0.26314,0.68573 -20.75185,14.00545 -45.53046,29.59939 -24.77861,15.59394 -45.30907,29.01346 -45.62324,29.82118 -0.58451,1.5027 3.53141,57.0577 4.47145,60.35375 0.28585,1.00228 1.07674,1.60858 1.75754,1.34733 0.6808,-0.26125 81.52765,-48.30176 179.65966,-106.7567 z m -49.80101,-78.09948 c 1.59734,-0.82053 1.74911,-2.34974 1.5,-15.11319 L 242.5,158.5 l -19,0.2872 c -10.45,0.15796 -20.0125,0.50404 -21.25,0.76905 -2.2061,0.47245 -2.25,0.76113 -2.25,14.79614 0,7.87285 0.2877,14.60198 0.63934,14.95361 0.95091,0.95092 38.57089,-0.43078 40.63781,-1.49253 z"
       id="path3945"
       style="fill:#29981b" />
  </g>
  <path
     d="m 77.48767,402.58631 32.04377,-16.31319 61.17448,20.97411 65.25277,238.87176 93.80087,78.6529 221.39334,27.96547 171.28853,-111.8619 29.1307,-255.18495 135.16646,1.16522 12.81751,92.05302 -33.79161,171.28854 -103.7053,129.34032 -101.37485,74.5746 L 475.41307,907.7127 329.75956,872.75586 180.61036,785.36375 62.922318,598.92725 48.939581,415.98644 z"
     id="path3872"
     style="fill:#27981a;fill-opacity:1;stroke:none" />
  <path
     d="M 59.279391,394.32903 C 11.008222,1048.5668 960.76144,1053.2709 887.0186,359.66081"
     id="path3874"
     style="fill:none;stroke:none" />
  <g
     style="font-size:40px;font-style:normal;font-weight:normal;line-height:125%;letter-spacing:0px;word-spacing:0px;fill:#ffffff;fill-opacity:1;stroke:none;font-family:Sans"
     id="text3081">
    <path
       d="m 64.175903,483.91297 c -2.758153,-5.61347 -4.833621,-11.44458 -6.22641,-17.49335 -1.392791,-6.04892 -2.10282,-12.29596 -2.130091,-18.74116 -0.06164,-14.57022 3.951981,-26.13026 12.040883,-34.68015 8.127943,-8.5501 19.164507,-12.85464 33.109725,-12.91364 14.10138,-0.0597 25.21336,4.22929 33.33598,12.86689 8.12247,8.63756 12.21564,20.49534 12.27952,35.57337 0.0245,5.8202 -0.49878,11.38886 -1.56995,16.70601 -1.07119,5.35606 -2.67095,10.40193 -4.79928,15.13763 l -18.10531,0.0766 c 2.75269,-4.89459 4.8024,-9.76658 6.14915,-14.61599 1.34678,-4.8105 2.00996,-9.63756 1.98954,-14.48121 -0.0381,-8.98434 -2.58693,-15.90721 -7.64653,-20.76861 -5.02051,-4.82259 -12.19866,-7.21411 -21.53446,-7.17458 -9.257761,0.0391 -16.396212,2.4131 -21.41537,7.12191 -5.019203,4.70874 -7.510531,11.37949 -7.473993,20.01227 0.0099,2.34367 0.155791,4.51104 0.43767,6.50211 0.321075,2.02985 0.797505,3.84425 1.429291,5.44323 l 16.992036,-0.0719 -0.05826,-13.7694 15.117052,-0.064 0.14874,35.15593 -42.069937,0.178"
       style="font-size:120px;font-weight:bold;letter-spacing:10.22000027px;word-spacing:7.55999756px;fill:#ffffff;-inkscape-font-specification:Sans Bold"
       id="path2995" />
    <path
       d="m 146.18911,496.33955 4.56408,22.09206 -51.356874,10.61001 c -7.077146,1.46206 -11.908788,3.65686 -14.494941,6.58443 -2.540049,2.95785 -3.268693,7.05723 -2.185935,12.29816 1.090612,5.27909 3.384083,8.75412 6.880419,10.4251 3.542431,1.70123 8.852215,1.82082 15.929371,0.35879 l 51.35687,-10.61 4.56408,22.09206 -51.35687,10.61001 c -12.126769,2.50522 -21.78316,1.32913 -28.969207,-3.52829 -7.186091,-4.85757 -12.067342,-13.52182 -14.643765,-25.99278 -2.568536,-12.4328 -1.516369,-22.30291 3.156505,-29.61037 4.672852,-7.30749 13.07264,-12.21388 25.199391,-14.71918 l 51.356876,-10.61"
       style="font-size:120px;font-weight:bold;letter-spacing:10.22000027px;word-spacing:7.55999756px;fill:#ffffff;-inkscape-font-specification:Sans Bold"
       id="path2997" />
    <path
       d="m 168.32875,585.74271 8.39548,20.93815 -81.19651,32.55701 -8.395479,-20.93815 81.196509,-32.55701"
       style="font-size:120px;font-weight:bold;letter-spacing:10.22000027px;word-spacing:7.55999756px;fill:#ffffff;-inkscape-font-specification:Sans Bold"
       id="path2999" />
    <path
       d="m 176.96036,613.49375 43.08565,68.14702 -14.4119,9.11187 -15.49957,-24.5151 -59.52959,37.63732 -12.05522,-19.0673 59.5296,-37.63732 -15.53088,-24.56463 14.41191,-9.11186"
       style="font-size:120px;font-weight:bold;letter-spacing:10.22000027px;word-spacing:7.55999756px;fill:#ffffff;-inkscape-font-specification:Sans Bold"
       id="path3001" />
    <path
       d="m 215.93843,676.94361 57.94198,56.06352 -11.85646,12.25372 -20.84395,-20.1682 -48.97409,50.61501 -16.21196,-15.68637 48.97409,-50.61502 -20.88606,-20.20894 11.85645,-12.25372"
       style="font-size:120px;font-weight:bold;letter-spacing:10.22000027px;word-spacing:7.55999756px;fill:#ffffff;-inkscape-font-specification:Sans Bold"
       id="path3003" />
    <path
       d="m 276.07026,733.06481 52.33512,31.10107 -8.7107,14.65787 -32.94241,-19.57661 -8.32156,14.00304 30.97796,18.4092 -8.7107,14.65786 -30.97795,-18.4092 -10.23731,17.22677 34.05056,20.23515 -8.71069,14.65786 -53.44327,-31.75961 44.69095,-75.2034"
       style="font-size:120px;font-weight:bold;letter-spacing:10.22000027px;word-spacing:7.55999756px;fill:#ffffff;-inkscape-font-specification:Sans Bold"
       id="path3005" />
    <path
       d="m 402.31537,805.1439 -8.25683,52.73645 7.98862,1.25076 c 9.10774,1.42599 16.40783,0.25596 21.90029,-3.51011 5.53093,-3.75999 8.97014,-9.94304 10.31765,-18.54916 1.34132,-8.56746 -0.0303,-15.46418 -4.11472,-20.69019 -4.08461,-5.2259 -10.70007,-8.55489 -19.84639,-9.98698 l -7.98862,-1.25077 m -19.6496,-20.335 23.50274,3.67978 c 13.12133,2.05447 22.73715,4.52868 28.84748,7.42266 6.1548,2.86157 11.17803,6.89019 15.0697,12.08587 3.44183,4.53233 5.7481,9.49963 6.91882,14.90193 1.17052,5.40239 1.2513,11.32602 0.24233,17.7709 -1.02125,6.52213 -2.91774,12.19549 -5.68948,17.0201 -2.76589,4.78604 -6.48002,8.81074 -11.1424,12.07412 -5.33207,3.75163 -11.38785,6.0654 -18.16737,6.94133 -6.7736,0.83731 -16.64388,0.24086 -29.61086,-1.78935 l -23.50274,-3.67977 13.53178,-86.42757"
       style="font-size:120px;font-weight:bold;letter-spacing:10.22000027px;word-spacing:7.55999756px;fill:#ffffff;-inkscape-font-specification:Sans Bold"
       id="path3007" />
    <path
       d="m 471.70852,796.28614 60.70696,-4.57241 1.28062,17.00262 -38.21208,2.87811 1.22342,16.24305 35.93338,-2.70648 1.28062,17.00262 -35.93337,2.70648 1.50506,19.98246 39.4975,-2.97492 1.28063,17.00262 -61.99238,4.66923 -6.57036,-87.23338"
       style="font-size:120px;font-weight:bold;letter-spacing:10.22000027px;word-spacing:7.55999756px;fill:#ffffff;-inkscape-font-specification:Sans Bold"
       id="path3009" />
    <path
       d="m 590.40787,776.87372 55.24798,-25.5715 7.16199,15.47368 -34.77592,16.09602 6.84204,14.78243 32.70213,-15.13617 7.16199,15.47369 -32.70213,15.13617 15.57917,33.65926 -20.47206,9.47548 -36.74519,-79.38906"
       style="font-size:120px;font-weight:bold;letter-spacing:10.22000027px;word-spacing:7.55999756px;fill:#ffffff;-inkscape-font-specification:Sans Bold"
       id="path3011" />
    <path
       d="m 703.95043,756.52352 c 3.67762,-2.96901 5.75457,-5.77539 6.23085,-8.41914 0.50665,-2.66814 -0.50372,-5.56752 -3.03111,-8.69815 -2.50286,-3.10006 -5.09955,-4.66855 -7.79008,-4.70545 -2.66013,-0.0613 -5.82901,1.3926 -9.50664,4.36159 l -7.38566,5.96269 14.09698,17.46115 7.38566,-5.96269 m 2.40493,18.08976 20.79581,25.75862 -17.55233,14.17059 -54.95246,-68.06658 26.80719,-21.64236 c 8.96614,-7.23856 16.74578,-11.03424 23.33896,-11.38706 6.62355,-0.37714 12.56088,2.68636 17.81199,9.19049 3.63157,4.49836 5.51875,9.07454 5.66153,13.72857 0.17311,4.62967 -1.37655,9.39503 -4.64901,14.29612 2.84275,-1.39133 5.99155,-1.87511 9.44641,-1.45133 3.46065,0.36898 7.74627,1.72862 12.85688,4.07891 l 25.13447,11.63775 -18.69209,15.09077 -21.95277,-10.21524 c -4.41991,-2.05446 -7.9991,-3.00545 -10.73757,-2.85299 -2.70811,0.12803 -5.49065,1.3453 -8.34764,3.6518 l -4.96937,4.01194"
       style="font-size:120px;font-weight:bold;letter-spacing:10.22000027px;word-spacing:7.55999756px;fill:#ffffff;-inkscape-font-specification:Sans Bold"
       id="path3013" />
    <path
       d="m 804.98416,694.41932 -20.70841,28.55481 9.6339,13.86278 -13.31254,18.35667 -51.79499,-77.58882 15.7893,-21.77185 89.84067,25.12764 -13.31255,18.35667 -16.13538,-4.8979 m -30.54508,14.4726 14.06934,-19.4002 -35.19282,-10.75683 21.12348,30.15703"
       style="font-size:120px;font-weight:bold;letter-spacing:10.22000027px;word-spacing:7.55999756px;fill:#ffffff;-inkscape-font-specification:Sans Bold"
       id="path3015" />
    <path
       d="m 762.38462,629.31113 9.09962,-23.49469 67.44108,-7.99907 -55.95015,-21.66981 7.7241,-19.94317 81.57575,31.59475 -9.09962,23.49469 -67.44108,7.99907 55.95016,21.66981 -7.72411,19.94317 -81.57575,-31.59475"
       style="font-size:120px;font-weight:bold;letter-spacing:10.22000027px;word-spacing:7.55999756px;fill:#ffffff;-inkscape-font-specification:Sans Bold"
       id="path3017" />
    <path
       d="m 885.36703,486.71487 c 1.4936,4.41932 2.43926,8.93208 2.83698,13.53829 0.39771,4.60635 0.2252,9.32249 -0.51751,14.14842 -2.2163,14.40081 -7.98733,25.1915 -17.31309,32.37211 -9.36436,7.17471 -20.93806,9.70144 -34.72113,7.5802 -13.82159,-2.12715 -24.09997,-8.01694 -30.83517,-17.66939 -6.77367,-9.65833 -9.0524,-21.68789 -6.83619,-36.0887 0.74281,-4.82593 1.99634,-9.37569 3.76059,-13.64931 1.7644,-4.27346 4.0232,-8.29305 6.7764,-12.05878 l 17.89478,2.75403 c -3.4541,3.69738 -6.14648,7.45263 -8.07716,11.26575 -1.93055,3.81328 -3.23751,7.93984 -3.92088,12.37968 -1.22395,7.9533 0.3616,14.59994 4.75665,19.93994 4.39517,5.3401 11.07125,8.69938 20.02824,10.07784 8.91847,1.37259 16.27637,0.17316 22.07373,-3.5983 5.7974,-3.77137 9.30809,-9.6337 10.53209,-17.58698 0.68332,-4.43986 0.67761,-8.76843 -0.0171,-12.98575 -0.69471,-4.21717 -2.13338,-8.60819 -4.31599,-13.17307 l 17.89478,2.75402"
       style="font-size:120px;font-weight:bold;letter-spacing:10.22000027px;word-spacing:7.55999756px;fill:#ffffff;-inkscape-font-specification:Sans Bold"
       id="path3019" />
    <path
       d="m 803.85084,459.12066 -0.5155,-60.87672 17.05017,-0.14438 0.32448,38.31894 16.28848,-0.13793 -0.30513,-36.03387 17.05017,-0.14438 0.30513,36.03387 20.03834,-0.16968 -0.33539,-39.60796 17.05017,-0.14438 0.52641,62.16574 -87.47733,0.74075"
       style="font-size:120px;font-weight:bold;letter-spacing:10.22000027px;word-spacing:7.55999756px;fill:#ffffff;-inkscape-font-specification:Sans Bold"
       id="path3021" />
  </g>
  <rect
     width="143.32306"
     height="163.71455"
     x="404.91678"
     y="409.57767"
     id="rect3941"
     style="fill:#ffffff;fill-opacity:1;stroke:none" />
  <g
     transform="matrix(1.4818637,0,0,1.4818637,403.23397,425.30723)"
     id="g3929"
     style="fill:#d20039;fill-opacity:1">
    <path
       d="M 92.71,44.408 52.591,4.291 c -2.31,-2.311 -6.057,-2.311 -8.369,0 l -8.33,8.332 10.567,10.567 c 2.456,-0.83 5.272,-0.273 7.229,1.685 1.969,1.97 2.521,4.81 1.67,7.275 l 10.186,10.185 c 2.465,-0.85 5.307,-0.3 7.275,1.671 2.75,2.75 2.75,7.206 0,9.958 -2.752,2.751 -7.208,2.751 -9.961,0 -2.068,-2.07 -2.58,-5.11 -1.531,-7.658 l -9.5,-9.499 v 24.997 c 0.67,0.332 1.303,0.774 1.861,1.332 2.75,2.75 2.75,7.206 0,9.959 -2.75,2.749 -7.209,2.749 -9.957,0 -2.75,-2.754 -2.75,-7.21 0,-9.959 0.68,-0.679 1.467,-1.193 2.307,-1.537 v -25.23 c -0.84,-0.344 -1.625,-0.853 -2.307,-1.537 -2.083,-2.082 -2.584,-5.14 -1.516,-7.698 L 31.798,16.715 4.288,44.222 c -2.311,2.313 -2.311,6.06 0,8.371 l 40.121,40.118 c 2.31,2.311 6.056,2.311 8.369,0 L 92.71,52.779 c 2.311,-2.311 2.311,-6.06 0,-8.371 z"
       id="path3931"
       style="fill:#d20039;fill-opacity:1" />
  </g>
</svg>
